<svg xmlns="http://www.w3.org/2000/svg" xmlns:xlink="http://www.w3.org/1999/xlink" width="1090" height="472.49"><rect width="1090" height="472.49" rx="5" ry="5" class="a"/><svg y="0%" x="0%"><circle cx="20" cy="20" r="6" fill="#ff5f58"/><circle cx="40" cy="20" r="6" fill="#ffbd2e"/><circle cx="60" cy="20" r="6" fill="#18c132"/></svg><svg height="412.49" viewBox="0 0 105 41.249" width="1050" x="15" xmlns="http://www.w3.org/2000/svg" xmlns:xlink="http://www.w3.org/1999/xlink" y="50"><style>@keyframes h{0%{transform:translateX(0)}to{transform:translateX(-105px)}}.a{fill:#282d35}.j{fill:#b9c0cb;white-space:pre}</style><g font-family="Monaco,Consolas,Menlo,'Bitstream Vera Sans Mono','Powerline Symbols',monospace" font-size="1.67"><defs><symbol id="a"><path fill="transparent" d="M0 0h105v19H0z"/></symbol><symbol id="b"><path fill="#6f7683" d="M0 0h1.102v2.171H0z"/></symbol></defs><path class="a" d="M0 0h105v41.249H0z"/><g style="animation-duration:.007948s;animation-iteration-count:infinite;animation-name:h;animation-timing-function:steps(1,end)"><svg width="210"><svg><use xlink:href="#a"/><use xlink:href="#b" x="-.004"/></svg><svg x="105"><use xlink:href="#a"/><use xlink:href="#b" x="-.004" y="30.369"/><text y="1.67" class="j">codespace@codespaces-b7650d</text><text y="3.841" class="j">---------------------------</text><text y="6.012" class="j">OS:</text><text x="4.008" y="6.012" class="j">Ubuntu</text><text x="11.022" y="6.012" class="j">24.04.2</text><text x="19.038" y="6.012" class="j">LTS</text><text x="23.046" y="6.012" class="j">x86_64</text><text y="8.183" class="j">Host:</text><text x="6.012" y="8.183" class="j">Virtual</text><text x="14.028" y="8.183" class="j">Machine</text><text x="22.044" y="8.183" class="j">7.0</text><text y="10.354" class="j">Kernel:</text><text x="8.016" y="10.354" class="j">6.8.0-1030-azure</text><text y="12.525" class="j">Uptime:</text><text x="8.016" y="12.525" class="j">4</text><text x="10.02" y="12.525" class="j">mins</text><text y="14.696" class="j">Packages:</text><text x="10.02" y="14.696" class="j">667</text><text x="14.028" y="14.696" class="j">(dpkg)</text><text y="16.867" class="j">Shell:</text><text x="7.014" y="16.867" class="j">bash</text><text x="12.024" y="16.867" class="j">5.2.21</text><text y="19.038" class="j">Resolution:</text><text x="12.024" y="19.038" class="j">1024x768</text><text y="21.209" class="j">Terminal:</text><text x="10.02" y="21.209" class="j">vscode</text><text y="23.38" class="j">CPU:</text><text x="5.01" y="23.38" class="j">Intel</text><text x="11.022" y="23.38" class="j">Xeon</text><text x="16.032" y="23.38" class="j">Platinum</text><text x="25.05" y="23.38" class="j">8370C</text><text x="31.062" y="23.38" class="j">(2)</text><text x="35.07" y="23.38" class="j">@</text><text x="37.074" y="23.38" class="j">2.800GHz</text><text y="25.551" class="j">GPU:</text><text x="5.01" y="25.551" class="j">00:08.0</text><text x="13.026" y="25.551" class="j">Microsoft</text><text x="23.046" y="25.551" class="j">Corporation</text><text x="35.07" y="25.551" class="j">Hyper-V</text><text x="43.086" y="25.551" class="j">virtual</text><text x="51.102" y="25.551" class="j">VGA</text><text y="27.722" class="j">Memory:</text><text x="8.016" y="27.722" class="j">1295MiB</text><text x="16.032" y="27.722" class="j">/</text><text x="18.036" y="27.722" class="j">7943MiB</text></svg></svg></g></g></svg></svg>